<?xml version="1.0" encoding="utf-8"?>
<!-- Generator: Adobe Illustrator 20.1.0, SVG Export Plug-In . SVG Version: 6.00 Build 0)  -->
<svg version="1.1" xmlns="http://www.w3.org/2000/svg" xmlns:xlink="http://www.w3.org/1999/xlink" x="0px" y="0px"
	 viewBox="0 0 595.3 841.9" style="enable-background:new 0 0 595.3 841.9;" xml:space="preserve">
<style type="text/css">
	.st0{fill:none;stroke:#898989;stroke-width:1.5;stroke-linecap:round;stroke-miterlimit:10;}
	.st1{fill:#E55D5C;stroke:#E55D5C;stroke-width:1.5;stroke-miterlimit:10;}
	.st2{stroke:#000000;stroke-width:0.75;stroke-miterlimit:10;}
	.st3{fill:none;}
	.st4{font-family:'Kefa-Bold';}
	.st5{font-size:16px;}
	.st6{letter-spacing:1.1;}
</style>
<g id="レイヤー_1">
	<g>
		<line class="st0" x1="30" y1="324.2" x2="49.5" y2="348.3"/>
		<path class="st0" d="M46.4,348.4c0,0,3.2-1.5,7.7,1.9s21.3,38.4,23.9,38.9s6.7,4.6,6.5,6c0,0,8-1.6,10.1,0.3
			c0,0,7.5-11.8,12.4-10.3c0,0,4.2-3.8,7.8-2.5c0,0,5.8-2.7,8.1,1c0,0,1.2,2.7-0.3,4.3c0,0,3.2,1.9-2.1,5.1l-1.5,3.9l-6.1,4.1
			l-21.8,19c0,0-13.4-0.1-22.1-1.8c0,0-8.6,3.7-12-3.6c0,0-9.1,3.3-11.5-9.5c0,0-16-28.8-13.1-37.4"/>
		<path class="st0" d="M31.9,372.3c0,0-14.5-15.9-17.7-15.7"/>
		<path class="st0" d="M118.8,397c0,0,4.6-11.2,4.3-12.2s-3.9-4.7-5.7-1.4c0,0,2.3,6.6-3.4,10.2l-1.4,7.5"/>
		<path class="st0" d="M117.4,383.3c0,0-3.8-1.2-6.1,2.7c-1.9,3.4-1.6,5.4-1.6,5.4l-2.6,4.1l-1.3,4.6l-18.4,15.5l-27.4-3.1l-3.3,1.9
			"/>
		<path class="st0" d="M94.6,395.5c0,0-8,3.5-11.9,8.2s-4.1,3.9-12.8,0.2c-8.7-3.7-12.1-4.8-12.1-4.8l-16.4-17.7"/>
		<path class="st0" d="M75.6,396.1c0,0,7.1-0.3,7.1,7.6c0,0,2.3-12.4-15-17.1c0,0-6.6-5.3-9.8-17.9"/>
		<path class="st0" d="M110.9,387.2c0,0-4.4-6.1-8.8,4.9"/>
	</g>
</g>
<g id="レイヤー_2">
	<g>
		<line class="st0" x1="574.8" y1="334.6" x2="555.3" y2="310.5"/>
		<path class="st0" d="M558.5,310.4c0,0-3.2,1.5-7.7-1.9c-4.5-3.4-21.3-38.4-23.9-38.9s-6.7-4.6-6.5-6c0,0-8,1.6-10.1-0.3
			c0,0-7.5,11.8-12.4,10.3c0,0-4.2,3.8-7.8,2.5c0,0-5.8,2.7-8.1-1c0,0-1.2-2.7,0.3-4.3c0,0-3.2-1.9,2.1-5.1l1.5-3.9l6.1-4.1l21.8-19
			c0,0,13.4,0.1,22.1,1.8c0,0,8.6-3.7,12,3.6c0,0,9.1-3.3,11.5,9.5c0,0,16,28.8,13.1,37.4"/>
		<path class="st0" d="M572.9,286.5c0,0,14.5,15.9,17.7,15.7"/>
		<path class="st0" d="M486,261.8c0,0-4.6,11.2-4.3,12.2c0.3,1.1,3.9,4.7,5.7,1.4c0,0-2.3-6.6,3.4-10.2l1.4-7.5"/>
		<path class="st0" d="M487.4,275.4c0,0,3.8,1.2,6.1-2.7c1.9-3.4,1.6-5.4,1.6-5.4l2.6-4.1l1.3-4.6l18.4-15.5l27.4,3.1l3.3-1.9"/>
		<path class="st0" d="M510.2,263.3c0,0,8-3.5,11.9-8.2c3.9-4.8,4.1-3.9,12.8-0.2s12.1,4.8,12.1,4.8l16.4,17.7"/>
		<path class="st0" d="M529.3,262.7c0,0-7.1,0.3-7.1-7.6c0,0-2.3,12.4,15,17.1c0,0,6.6,5.3,9.8,17.9"/>
		<path class="st0" d="M493.9,271.6c0,0,4.4,6.1,8.8-4.9"/>
	</g>
</g>
<g id="レイヤー_3">
	<g id="さ01">
		<path d="M190.6,346c-2.5-0.5-5.8-0.8-8.1-0.8c-2.6,0-6.1,0.8-8.2,2c-3,1.6-5.4,4.8-5.4,9.1c0,4.2,2.4,7.8,5.7,9.9
			c3.8,2.4,9,3.5,14.9,3.5c4,0,5.1-1.7,5.1-3.1c0-1.1-0.6-2-1.6-2.8c-1.2-0.9-2.9-1.3-3.9-1.3c-0.4,0-1,0.1-1.2,0.1
			c-0.4,0.1-0.9,0.1-1.5,0.1c-4.8-0.1-7.6-0.5-10-1.6c-2.6-1.3-4.1-3.1-4.1-6.1c0-1.8,0.9-3.6,2.2-4.9c1.7-1.6,4.3-2.2,7.4-2.2
			c3.3,0,8.7,1.8,11.1,4.8c1.5,1.9,2.2,2.4,3.1,2.4c1.5,0,2.1-0.8,2.1-3.2c0-2.6-0.4-4.1-1.4-5c-1.9-1.8-2.1-2.2-3.2-4.1
			c-1.8-3.2-3.1-6.1-4.5-9.7l-3.4,1.1C187.2,338.4,189.1,342.9,190.6,346z"/>
		<path d="M177.6,318.6c0.3,0,0.7,0,1.1,0c0.4,0,1.1,0.1,1.6,0.3c0.6,0.3,1,0.7,1.5,2.2c1.1,3.6,1.8,6.4,2.5,8.7l3.4-1.3
			c-0.8-3.1-1.1-5.3-1.1-6.3c0-0.6,0-1.4,0.2-1.9c0.2-0.5,0.3-0.8,0.3-1.2c0-0.8-0.4-1.5-1.1-2.2c-1.5-1.3-3.8-2-5.1-2
			c-1.4,0-2.1,0.6-2.6,1.3c-0.6,0.7-0.9,1.3-0.9,1.8C177.2,318.3,177.3,318.6,177.6,318.6z"/>
		<path class="st1" d="M197.6,323.9c-1.5,0-2.4,0.3-3.2,1.2c-0.7,0.7-1.4,1.1-2.3,1.6c-1.6,0.9-2.6,1.3-4.4,1.9c0,0,0,0,0,0
			l-3.4,1.3c-4.3,1.3-8.6,1.9-10.7,1.9c-2.2,0-4.3-0.5-6.3-2c-0.5-0.4-0.9-0.9-1.2-0.9c-0.2,0-0.4,0.3-0.4,0.6
			c0,0.3,0.3,0.8,0.6,1.3c1.7,2.4,2.8,3.4,4.4,4.3c1.3,0.7,2.5,0.9,5,0.9c2.5,0,6.8-0.8,9.9-1.7c0,0,0,0,0,0.1l3.4-1.1c0,0,0,0,0,0
			c3.7-1.4,6.6-2.6,8.8-3.6c2.5-1.1,3-2,3-2.9C200.8,325.2,200.1,323.9,197.6,323.9z"/>
	</g>
</g>
<g id="レイヤー_4">
	<g id="さ02">
		<path d="M257.9,326.6c0-1.3-0.8-2.7-3.3-2.7c-1.5,0-2.4,0.3-3.2,1.2c-0.7,0.7-1.4,1.1-2.3,1.6c-1.6,0.9-2.6,1.3-4.4,1.9
			c-0.8-3.1-1.1-5.4-1.1-6.3c0-0.6,0-1.4,0.2-1.9c0.2-0.5,0.3-0.8,0.3-1.2c0-0.8-0.4-1.5-1.1-2.2c-1.5-1.3-3.8-2-5.1-2
			c-1.4,0-2.1,0.6-2.6,1.3c-0.6,0.7-0.9,1.3-0.9,1.8c0,0.3,0.1,0.5,0.4,0.5c0.3,0,0.7,0,1.1,0c0.4,0,1.1,0.1,1.6,0.3
			c0.6,0.3,1,0.7,1.5,2.2c1.1,3.6,1.8,6.4,2.5,8.8c-4.3,1.3-8.6,1.9-10.7,1.9c-2.2,0-4.3-0.5-6.3-2c-0.5-0.4-0.9-0.9-1.2-0.9
			c-0.2,0-0.4,0.3-0.4,0.6c0,0.3,0.3,0.8,0.6,1.3c1.7,2.4,2.8,3.4,4.4,4.3c1.3,0.7,2.5,0.9,5,0.9c2.5,0,6.8-0.8,9.9-1.7
			c1.5,4.2,3.4,8.8,5,11.8c-2.5-0.5-5.8-0.8-8.1-0.8c-2.6,0-6.1,0.8-8.2,2c-3,1.6-5.4,4.8-5.4,9.1c0,4.2,2.4,7.8,5.7,9.9
			c3.8,2.4,9,3.5,14.9,3.5c4,0,5.1-1.7,5.1-3.1c0-1.1-0.6-2-1.6-2.8c-1.2-0.9-2.9-1.3-3.9-1.3c-0.4,0-1,0.1-1.2,0.1
			c-0.4,0.1-0.9,0.1-1.5,0.1c-4.8-0.1-7.6-0.5-10-1.6c-2.6-1.3-4.1-3.1-4.1-6.1c0-1.8,0.9-3.6,2.2-4.9c1.7-1.6,4.3-2.2,7.4-2.2
			c3.3,0,8.7,1.8,11.1,4.8c1.5,1.9,2.2,2.4,3.1,2.4c1.5,0,2.1-0.8,2.1-3.2c0-2.6-0.4-4.1-1.4-5c-1.9-1.8-2.1-2.2-3.2-4.1
			c-1.8-3.2-3.1-6.1-4.5-9.8c3.7-1.4,6.6-2.6,8.8-3.6C257.3,328.4,257.9,327.5,257.9,326.6z"/>
	</g>
</g>
<g id="レイヤー_5">
	<g>
		<path class="st1" d="M295.9,350.1l-0.8,0.7l-8.8-8.5l-8.3,8.9l-0.8-0.7l8.4-8.9l-8.4-8.1l0.7-0.8l8.4,8.1l8.1-8.4l0.9,0.7
			l-8.1,8.5L295.9,350.1z"/>
	</g>
</g>
<g id="レイヤー_6">
	<path id="XMLID_24_" class="st2" d="M370.7,335.2c0,6.4-3.9,10.5-9.1,13.6c-6.1,3.5-14.4,5.3-21.4,5.7c-0.7,0.1-1.2-0.4-1.2-0.9
		c0-0.4,0.4-0.7,1.2-0.9c6.5-1.3,12.6-3.4,17.4-6.4c5-3.2,8.4-7.3,8.4-12.2c0-7-4.9-11-11.5-11c-3.3,0-6.8,1.1-10.4,3.1
		c-2.9,1.6-5.9,3.5-9,5.9c-1.7,1.3-2.7,2.1-3.4,3c-0.6,0.8-1,1.2-1.9,1.2c-1,0-3-0.9-4.7-2.7c-1.1-1.2-1.9-2.8-1.9-3.8
		c0-0.6,0.4-1.2,0.7-1.2c0.3,0,0.5,0.2,0.9,0.7c1,1,2.1,1.6,2.8,1.6c0.8,0,1.8-0.2,3.5-1.2c4.9-2.6,8.1-4.3,11.2-5.7
		c4.4-2.1,8.4-3.2,12.4-3.2C363.1,320.9,370.7,326,370.7,335.2z"/>
</g>
<g id="レイヤー_7">
	<g>
		<path class="st3" d="M411.3,357.3c-3.1-0.1-5.9,1.2-6,3.8c-0.1,1.9,1.4,3.6,5.3,3.8c2,0.1,3.4-0.4,4.5-1.4
			c1.2-1.1,1.6-2.4,1.7-3.9c0-0.3,0-0.6,0-1C415.3,357.9,413,357.4,411.3,357.3z"/>
		<path class="st2" d="M415.3,328.2c1.5-0.5,2.1-1,2.2-2.1c0-1.1-0.7-2-2.2-2c-0.6,0-1.5,0.3-2.7,0.9c-1.6,0.8-3.1,1.4-4.6,1.8
			c0.5-1.3,1.1-2.6,1.5-3.5c0.6-1.3,1-2.3,1.6-2.8c0.7-0.6,0.9-1,1-1.6c0-1-0.4-1.4-1.3-2.1c-1.5-1.2-3.8-2-4.7-2
			c-1,0-1.5,0.1-2.1,0.5c-0.2,0.2-0.5,0.4-0.5,0.7c0,0.2,0.1,0.3,0.3,0.3c0.6,0.2,1.5,0.5,2.3,0.9c0.8,0.4,1,1,1,1.6
			c0,0.6-0.2,1.3-0.4,2.2c-0.5,2-1.2,4.2-2.2,6.7c-2.6,0.5-5.1,0.9-7.4,0.8c-1.7-0.1-3.3-0.6-4.6-1.9c-0.3-0.3-0.4-0.4-0.7-0.4
			c-0.2,0-0.5,0.2-0.5,0.5c0,0.2,0,0.4,0.1,0.6c0.7,1.6,1.5,2.4,2.7,3.2c1.1,0.8,2.5,1,3.9,1.1c1.5,0.1,3.6-0.2,5.1-0.3
			c-3.3,7.6-7,15-11.2,21.9c-0.7,1-0.8,1.6-0.8,2.1c-0.1,1.7,1,2.4,1.9,2.4c0.9,0,1.6-0.6,2.1-1.7c4-8.5,7.7-16.4,11.3-25.3
			C409.9,329.8,413.3,328.9,415.3,328.2z"/>
		<path class="st1" d="M429.8,362.4c-1.7-1.8-5.6-4-9.9-5.9c-0.7-4.3-1.5-9.7-1.4-12.1c0.2-5.1,3-5.9,5.7-5.7c0.7,0,1.3,0.3,2.1,0.7
			c-1.1-1.8-2.5-2.5-3.1-2.8l0,0.2c-4,0.9-6.8,2.7-7,8.7c-0.1,3.1,0.2,6.6,0.3,10c-1.6-0.4-3-0.5-4.3-0.6c-4.8-0.2-8.6,2.1-8.8,6.3
			c-0.2,4,3,6.9,7.5,7.1c3.2,0.1,5.1-0.6,6.6-2c1.5-1.3,2.3-3.2,2.4-6.1c2.8,1.7,5.1,3.4,7,5.6c0.8,0.8,1.4,1.2,2,1.2
			c1.1,0,1.9-0.8,1.9-2.1C430.9,364.2,430.7,363.2,429.8,362.4z M415.4,363.4c-1.1,1-2.5,1.5-4.5,1.4c-3.9-0.2-5.4-1.8-5.3-3.8
			c0.1-2.6,2.9-3.9,6-3.8c1.7,0.1,3.9,0.6,5.4,1.3c0,0.4,0,0.7,0,1C417,361,416.5,362.3,415.4,363.4z"/>
		<path class="st2" d="M426.5,339.7c0.7,0.7,1.4,1.5,2.3,2.4c0.4,0.5,1,0.9,1.6,0.9c1,0,1.7-0.9,1.8-1.9c0.1-1.4-1-2.8-2.4-3.9
			c-2.3-1.9-6-3.3-9.5-3.5c-1.6-0.1-3.5,0.2-5.2,0.9c-0.3,0.1-0.6,0.4-0.6,0.6c0,0.4,0.2,0.7,0.5,0.7c0.2,0,0.4,0,0.7,0
			c0.7-0.1,1.7-0.1,2.6-0.1c1.8,0.1,3.2,0.5,4.9,1.3l0,0C423.8,337.4,425.8,339,426.5,339.7z"/>
	</g>
</g>
<g id="レイヤー_8">
	<text transform="matrix(0.9476 0 0 1 278.731 403.3628)" class="st4 st5 st6">sasatsuna</text>
</g>
</svg>
